<svg id="Layer_1" data-name="Layer 1" xmlns="http://www.w3.org/2000/svg" xmlns:xlink="http://www.w3.org/1999/xlink" viewBox="0 0 1000 1000"><defs><style>.cls-1{fill:#e71d36;stroke:#000;}.cls-1,.cls-2{stroke-miterlimit:10;}.cls-2{fill:#fff;stroke:#fff;}</style></defs><title>My logoP</title><rect class="cls-1" x="-11.3" y="-9.73" width="1020.27" height="1020.27"/><path class="cls-2" d="M562.33,976.36H427.47V19H542a20.34,20.34,0,0,1,20.34,20.34v937Z"/><path class="cls-2" d="M943.59,65.76,914.35,34.32c-18.26-19.64-47.86-19.64-66.12,0L452.46,459.87c-18.26,19.63-18.26,51.46,0,71.09l29.24,31.45c18.26,19.63,47.86,19.63,66.12,0L724.31,372.63Q834,254.75,943.59,136.85C961.85,117.22,961.85,85.39,943.59,65.76Z"/><path class="cls-2" d="M943.8,930l-29.65,31.88c-18.15,19.51-47.57,19.51-65.72,0L463.83,548.3c-18.15-19.51-18.15-51.15,0-70.66l29.65-31.88c18.15-19.51,47.57-19.51,65.71,0L730.64,630.11,943.8,859.3C961.94,878.81,961.94,910.45,943.8,930Z"/><path class="cls-2" d="M211,976.36H76.14c-22.4-80.92-62.23-267.13,0-480.79,8.27-28.41,50.66-168.26,165.68-308.12A856,856,0,0,1,427.47,19c-60.8,97.25-146,259.39-192.38,478.68A1529.25,1529.25,0,0,0,211,976.36Z"/><path class="cls-2" d="M450.22,596.48C434.77,569,386.68,490.87,317.12,490.87c-19.17,0-77,5.94-133.09,105.61L152,483.83c35.95-32.29,91.9-70.45,161.47-70.4C365.65,413.46,409.25,435,441,457c-2.28,4.57-11.39,23.87-12.55,55C427.15,545.82,435.8,579.84,450.22,596.48Z"/><image width="1028" height="1028" transform="translate(872.06 468.58) scale(0.06 0.07)" xlink:href="../f1.png"/></svg>